<?xml version="1.0" encoding="UTF-8"?>
<svg width="704px" height="91px" viewBox="0 0 704 91" version="1.1" xmlns="http://www.w3.org/2000/svg" xmlns:xlink="http://www.w3.org/1999/xlink">
    <!-- Generator: Sketch 3.6.1 (26313) - http://www.bohemiancoding.com/sketch -->
    <title>freddie-signature</title>
    <desc>Created with Sketch.</desc>
    <defs></defs>
    <g id="kit" stroke="none" stroke-width="1" fill="none" fill-rule="evenodd" stroke-linecap="round" stroke-linejoin="round">
        <g id="freddie-signature" stroke="#FFFFFF" stroke-width="3.6">
            <g id="Page-1" transform="translate(3.000000, 2.000000)">
                <path d="M7.43237315,18.64436 C7.43237315,18.64436 -16.8803397,6.34496 22.4401613,1.24516 C61.7606623,-3.85444 95.6784716,8.14496 102.582022,11.44476 C109.485573,14.74456 125.564174,22.92496 127.765433,31.52496" id="Stroke-1"></path>
                <path d="M40.1151958,42.5249 C40.1151958,42.5249 49.1203489,45.1249 53.1226392,45.3249 C57.1249295,45.5249 64.2133859,47.2887 67.1306553,47.3249 C69.6056716,47.3557 79.5377552,48.5249 81.7390148,47.7249 C83.9402745,46.9249 85.1409616,46.9249 84.3405035,50.1249 C83.5400455,53.3249 81.9391293,66.9249 82.9397019,65.1249 C83.9402745,63.3249 90.5440535,48.9249 90.744168,48.3249 C90.9442825,47.7249 95.1466873,50.1249 96.5474889,51.1249 C97.9482905,52.1249 104.752184,54.6883 109.955161,53.9065 C115.158139,53.1249 122.162147,50.3249 125.363979,49.5249 C128.565811,48.7249 135.769934,45.7249 137.170735,43.7249 C138.571537,41.7249 143.174171,37.7249 135.16959,36.7249 C127.16501,35.7249 119.760773,39.1249 120.361116,40.9249 C120.96146,42.7249 120.761345,43.3249 124.763635,44.7249 C128.765926,46.1249 150.978637,57.1249 155.381156,59.3249 C159.783676,61.5249 163.98608,64.6517 163.385737,65.2883 C162.785393,65.9249 161.784821,69.1249 165.386882,68.3249 C168.988943,67.5249 171.590432,66.3249 173.791692,62.7249 C175.992951,59.1249 178.194211,54.7249 178.794554,50.1249 C179.394898,45.5249 178.59444,38.7249 176.593295,33.0249 C174.59215,27.3249 174.992379,25.9249 170.990088,24.1249" id="Stroke-3"></path>
                <path d="M58.7258456,41.9249 C58.7258456,41.9249 55.1237844,54.1249 47.5194328,63.9249 C39.9150812,73.7249 38.5142796,75.1249 38.5142796,75.1249" id="Stroke-5"></path>
                <path d="M58.7258456,74.1249 L79.7380698,47.9441" id="Stroke-7"></path>
                <path d="M228.22284,10.5249 C228.22284,10.5249 236.627649,13.5249 250.035322,16.1249 C263.442994,18.7249 291.058797,19.3249 294.260629,19.5249 C297.462462,19.7249 310.269791,20.9249 304.066241,25.1249 C297.862691,29.3249 289.85811,32.1249 289.85811,32.1249 C289.85811,32.1249 277.250896,37.3249 279.452155,38.9249 C281.653415,40.5249 293.865203,46.9579 290.458454,53.7249 C286.717313,61.1559 287.51577,59.5319 284.63292,62.9041 C281.531946,66.5317 275.249751,70.9249 273.44872,69.9249 C271.647689,68.9249 272.047918,66.3249 274.449293,64.3249" id="Stroke-9"></path>
                <path d="M273.848949,39.3249 C273.848949,39.3249 275.64998,41.3249 275.449865,42.9249 C275.249751,44.5249 274.449293,49.7249 272.047918,54.3249 C269.646544,58.9249 264.843796,66.7799 263.843223,68.4525 C262.842651,70.1249 261.04162,72.1249 260.641391,71.1249" id="Stroke-11"></path>
                <path d="M266.981239,34.7249 C263.843243,39.7249 260.841526,43.0525 257.839808,46.2887 C254.83809,49.5249 252.836945,52.3929 249.635113,55.3589 C246.43328,58.3249 241.230303,63.1249 239.629387,63.9249 C238.028471,64.7249 234.226295,66.5249 234.226295,66.5249" id="Stroke-13"></path>
                <path d="M297.662576,52.3249 C297.662576,52.3249 301.064523,52.3249 302.665439,56.7249 C304.266355,61.1249 303.265783,65.1249 307.067958,60.5249 C310.870134,55.9249 314.472195,50.7249 315.272654,48.9249 C316.073112,47.1249 316.87357,45.3249 316.473341,44.3249 C316.073112,43.3249 319.274944,45.2525 321.476203,46.2887 C323.677463,47.3249 334.083418,50.5249 339.086281,50.6249 C344.089144,50.7249 353.69464,48.9249 356.096015,48.3249 C358.497389,47.7249 346.690632,49.1249 345.890174,51.9249 C345.089716,54.7249 347.49109,56.1249 350.993094,56.3249 C354.495098,56.5249 358.09716,55.3249 361.899335,54.3249 C365.701511,53.3249 371.704947,53.3929 373.305863,55.3589 C374.906779,57.3249 374.50655,59.5249 373.305863,61.7249 C372.105176,63.9249 369.703802,66.5249 369.703802,66.5249 C369.703802,66.5249 371.304718,64.3249 375.507122,62.3249 C379.709527,60.3249 380.910214,59.3249 382.91136,58.9249 C384.912505,58.5249 385.913077,58.3249 388.114337,57.9249 C390.315597,57.5249 393.1172,57.0455 397.519719,55.2853 C401.922238,53.5249 411.127506,49.7661 421.733575,44.0455 C432.339645,38.3249 443.546057,30.7249 449.749607,25.1249 C455.953157,19.5249 457.353959,17.9249 458.354532,16.3249 C459.355104,14.7249 458.668511,8.7625 449.263129,15.7625 C439.857747,22.7625 411.127506,48.7249 405.5243,62.1249 C399.921093,75.5249 398.720406,83.1249 405.324185,86.1249 C411.927964,89.1249 416.209614,81.4611 417.731285,78.7249 C420.933518,72.9667 419.985375,68.9147 419.332201,66.5249 C418.362846,62.9779 411.198347,49.4899 403.79431,52.6899" id="Stroke-15"></path>
                <path d="M454.152127,52.1249 C454.152127,52.1249 448.348806,59.1249 446.74789,61.9249 C445.146974,64.7249 443.946287,69.9249 450.450008,63.9249 C456.95373,57.9249 465.958883,49.3249 467.359685,45.9249 C468.760486,42.5249 469.761059,39.1249 468.560372,44.9249 C467.359685,50.7249 465.35854,53.3249 465.758769,56.9249 C466.158998,60.5249 465.958883,63.5249 469.961173,64.3249 C473.963464,65.1249 478.566098,64.1249 484.769648,59.3249 C490.973197,54.5249 497.977205,47.5249 500.578694,45.3249 C503.180183,43.1249 503.580412,39.9249 508.983504,43.5249 C514.386596,47.1249 526.851529,45.6437 531.654277,45.4437 C536.457025,45.2437 541.60217,42.6573 549.206521,41.7911 C549.206521,41.7911 565.816026,39.5105 574.821179,40.3177 C583.826332,41.1249 612.242593,42.5249 618.246029,41.7249 C624.249464,40.9249 637.256908,40.7249 658.869275,33.1249 C680.481643,25.5249 692.088285,18.5249 694.889888,16.7249 C697.691491,14.9249 698.892178,12.1085 698.892178,12.1167" id="Stroke-17"></path>
            </g>
        </g>
    </g>
</svg>